<svg xmlns="http://www.w3.org/2000/svg" xmlns:xlink="http://www.w3.org/1999/xlink" width="112" height="49" viewBox="0 0 112 49"><defs><clipPath id="a"><rect width="112" height="49" transform="translate(1008 5351)" fill="none" stroke="#707070" stroke-width="1"/></clipPath></defs><g transform="translate(-1008 -5351)" clip-path="url(#a)"><path d="M83.185,16.049c-.338-.305-.671-.627-1.016-.913-1.165-.964-2.379-1.808-3.492-2.9-1.311-1.286-2.684-2.377-4.034-3.544a5.686,5.686,0,0,1-1.712-3.4C72.456,2.673,73.8-.038,75.682,0a3.743,3.743,0,0,1,1.533.487c1.993,1,3.976,2.049,5.962,3.084.4.21.8.432,1.2.656.376.211.744.456,1.124.643,1.259.62,2.538,1.154,3.779,1.849,1.2.67,2.364,1.464,3.526,2.267,1.572,1.087,3.137,2.2,4.683,3.368,1.008.763,1.994,1.6,2.957,2.5a6.587,6.587,0,0,1,1.841,4.09,8.637,8.637,0,0,1-1.105,5.743,25.777,25.777,0,0,1-3.211,4.128c-1.285,1.4-2.535,2.869-3.823,4.257a14.836,14.836,0,0,1-5.1,4.019,3.824,3.824,0,0,0-1.151.859,13.274,13.274,0,0,1-2.731,1.985,33.954,33.954,0,0,0-3.205,2.379c-.749.563-1.493,1.15-2.255,1.665-1.3.874-2.525-.076-3.072-1.523a5.459,5.459,0,0,1,.623-4.893,9.066,9.066,0,0,1,1.15-1.343c1.015-.954,2.062-1.824,3.072-2.789a18,18,0,0,0,1.318-1.561c.554-.673,1.105-1.351,1.741-2.128A3.258,3.258,0,0,0,84,29.546c-2.243-.331-4.488-.635-6.73-.985-1.667-.26-3.328-.608-4.995-.861-2.292-.347-4.588-.642-6.882-.955-.823-.112-1.645-.228-2.469-.316-2.1-.223-4.2-.4-6.295-.658-1.571-.2-3.136-.512-4.7-.746-.92-.138-1.847-.187-2.766-.341-.742-.125-1.475-.371-2.215-.521-1.016-.206-2.033-.407-3.053-.543-.895-.119-1.8-.174-2.694-.2-1.049-.034-2.1,0-3.149-.017-.622-.013-1.243-.1-1.866-.121q-1.878-.049-3.757-.051c-2.655,0-5.311.041-7.966.008-1.65-.021-3.3-.21-4.946-.21-2.68,0-5.361.116-8.042.132q-3.231.018-6.461-.1A23.413,23.413,0,0,1,2.4,22.7c-.87-.131-1.509-.982-2.167-1.74a1.28,1.28,0,0,1,.05-1.526A5.073,5.073,0,0,1,3.126,17.5c3.219-.587,6.41.095,9.613,0,1.627-.049,3.254-.171,4.88-.3,1.753-.139,3.505-.3,5.256-.5,1.424-.166,2.842-.484,4.267-.606,1.725-.147,3.454-.185,5.182-.221,1.828-.039,3.656-.029,5.485-.025,1.15,0,2.3.05,3.45.046.9,0,1.8-.05,2.7-.085q1.277-.05,2.553-.121a1.218,1.218,0,0,0,.521-.105,5.915,5.915,0,0,1,2.833-.416c1.853-.052,3.706-.179,5.559-.259.65-.028,1.3-.041,1.952-.01,3,.142,6.006.289,9.008.458,3.054.172,6.107.375,9.161.56q3,.182,6.007.349c.521.03,1.043.053,1.565.08l.068-.295Z" transform="translate(1010.873 5353)" fill="#177908"/></g></svg>