<svg xmlns="http://www.w3.org/2000/svg" width="58.088" height="52.685" viewBox="0 0 58.088 52.685"><g transform="translate(-2.456 -5.657)"><path d="M59.839,19.372l-1.23-1.47a2.993,2.993,0,0,0-4.28-.33l-41.64,36.72a1,1,0,0,0-.11,1.39l1.93,2.3a.99.99,0,0,0,.77.36.961.961,0,0,0,.62-.22l43.53-34.49a2.993,2.993,0,0,0,.41-4.26Zm-44.42,36.58-.68-.81L46.659,27l2.11,2.52Zm42.76-33.88-7.83,6.21-2.19-2.61,7.49-6.6a.982.982,0,0,1,.73-.24.97.97,0,0,1,.69.35l1.23,1.47a.98.98,0,0,1,.23.75.964.964,0,0,1-.35.67Z" fill="#ff6514"/><path d="M49.369,9.652a3.026,3.026,0,0,0-1.07-2.06l-1.47-1.23a2.968,2.968,0,0,0-2.22-.69,3.055,3.055,0,0,0-2.06,1.11L8.159,50.372a1,1,0,0,0,.14,1.39l2.3,1.93a1,1,0,0,0,1.39-.11l36.64-41.71a3.019,3.019,0,0,0,.74-2.22Zm-38.24,41.88-.8-.68,26.36-33.41,2.53,2.12Zm36-40.98-6.59,7.5-2.61-2.18,6.18-7.84a1,1,0,0,1,.69-.36.943.943,0,0,1,.75.23l1.47,1.23a.948.948,0,0,1,.35.68.992.992,0,0,1-.24.74Z" fill="#ff6514"/><path d="M9.34,42.736a1,1,0,0,0-1-1H3.456a1,1,0,0,0,0,2H8.34A1,1,0,0,0,9.34,42.736Z" fill="#ff6514"/><path d="M9.64,38.6a1,1,0,1,0,1.414-1.414L7.6,33.731a1,1,0,0,0-1.414,1.414Z" fill="#ff6514"/><path d="M15.192,36.884a1,1,0,0,0,1-1V31a1,1,0,0,0-2,0v4.884a1,1,0,0,0,1,1Z" fill="#ff6514"/></g></svg>